# xmcd
#
# Track frame offsets:
#	150
#	13036
#	23833
#	33726
#	41414
#	52537
#	61544
#	73317
#	83624
#	94070
#	102124
#	110564
#	122489
#	133216
#	143417
#	151952
#	162167
#	171216
#	183313
#	194580
#	208336
#	219735
#	228655
#	238494
#	251493
#
# Disc length: 3486 seconds
#
# Revision: 1
# Processed by: cddbd v1.5.2PL0 Copyright (c) Steve Scherf et al.
# Submitted via: audiograbber 1.83.01
#
DISCID=5e0d9c19
DTITLE=Johnny Cash - Hot Hundred [CD1)
DYEAR=2014
DGENRE=Country
TTITLE0=Folsom Prison Blues
TTITLE1=I Heard That Lonesome Whistle
TTITLE2=The Rock Island Line
TTITLE3=If The Good Lord's Willing
TTITLE4=Cry, Cry, Cry
TTITLE5=Remember Me
TTITLE6=So Doggone Lonesome
TTITLE7=I Was There When It Happened
TTITLE8=There You Go
TTITLE9=The Wreck Of Old '97
TTITLE10=Country Boy
TTITLE11=Doin' my Time
TTITLE12=Run Softly, Blue River
TTITLE13=Frankie's Man, Johnny
TTITLE14=That's All Over
TTITLE15=The Troubadour
TTITLE16=One More Ride
TTITLE17=That's Enough
TTITLE18=Don't Make Me Go
TTITLE19=Don't Take Your Guns To Town
TTITLE20=I'd Rather Die Young
TTITLE21=Pickin' Time
TTITLE22=Shepherd Of My Heart
TTITLE23=Supper-Time
TTITLE24=Ballad Of A Teenage Queen
EXTD=
EXTT0=
EXTT1=
EXTT2=
EXTT3=
EXTT4=
EXTT5=
EXTT6=
EXTT7=
EXTT8=
EXTT9=
EXTT10=
EXTT11=
EXTT12=
EXTT13=
EXTT14=
EXTT15=
EXTT16=
EXTT17=
EXTT18=
EXTT19=
EXTT20=
EXTT21=
EXTT22=
EXTT23=
EXTT24=
PLAYORDER=
